<?xml version="1.0" ?><svg height="32" id="icon" viewBox="0 0 32 32" width="32" xmlns="http://www.w3.org/2000/svg"><defs><style>
      .cls-1 {
        fill: none;
      }
    </style></defs><g><path d="M26,26H6V6H16V4H6A2.002,2.002,0,0,0,4,6V26a2.002,2.002,0,0,0,2,2H26a2.002,2.002,0,0,0,2-2V16H26Z"/><path d="M26,26H6V6H16V4H6A2.002,2.002,0,0,0,4,6V26a2.002,2.002,0,0,0,2,2H26a2.002,2.002,0,0,0,2-2V16H26Z"/></g><polygon points="26 6 26 2 24 2 24 6 20 6 20 8 24 8 24 12 26 12 26 8 30 8 30 6 26 6"/><rect class="cls-1" data-name="&lt;Transparent Rectangle&gt;" height="32" id="_Transparent_Rectangle_" width="32"/></svg>