<?xml version="1.0" ?><svg xmlns="http://www.w3.org/2000/svg" xmlns:xlink="http://www.w3.org/1999/xlink" version="1.1" viewBox="0 0 512 512" style="enable-background:new 0 0 512 512;" xml:space="preserve"><g id="_x32_8_x2C__Color_Palette_x2C__Drawing_x2C__Painting_x2C__Color_Palette_x2C__Artist"><g><g><path d="M456.301,97.962l45.103-45.102c11.679-11.709,11.675-30.739-0.014-42.428c-11.702-11.688-30.735-11.686-42.428,0.004     l-45.11,45.11C369.041,20.221,313.346,0.854,255.974,0.854c-140.951,0-255,114.068-255,255     c0,173.848,169.369,296.509,334.484,242.363c23.473-7.693,30.568-37.453,13.088-54.933     c-23.387-23.396-23.387-61.465-0.004-84.857c23.388-23.37,61.459-23.37,84.86-0.002c19.29,19.29,52.019,12.1,61.55-13.434     C526.14,261.432,511.251,167.651,456.301,97.962z M473.104,24.579c3.897-3.898,10.247-3.898,14.148,0     c3.896,3.896,3.892,10.246,0,14.147c-2.682,2.682-101.716,101.716-120.809,120.809c-4.102-5.766-8.811-10.352-14.146-14.148     L473.104,24.579z M261.206,260.851c3.313-0.077,17.643-0.521,34.712-2.659c-1.176,20.485-18.196,37.662-39.945,37.662     c-22.056,0-40-17.944-40-40c0-21.706,17.152-38.771,37.663-39.946c-2.138,17.07-2.583,31.401-2.66,34.714     C250.843,256.325,255.518,260.995,261.206,260.851z M271.436,240.392c1.061-17.353,5.563-62.132,17.822-74.391     c15.596-15.596,40.972-15.596,56.568,0c15.597,15.596,15.597,40.973,0,56.568C333.565,234.832,288.787,239.332,271.436,240.392z      M476.214,337.999c-4.461,11.955-19.675,15.282-28.675,6.279c-31.201-31.156-81.954-31.155-113.138,0.007     c-31.181,31.193-31.181,81.947,0.001,113.141c6.967,6.966,4.138,18.735-5.175,21.787c-24.281,7.963-49.722,11.865-75.577,11.633     C125.352,489.607,20.974,384.191,20.974,255.854c0-129.579,105.42-235,235-235c52.085,0,102.669,17.307,143.636,48.935     l-66.564,66.564c-20.015-5.32-42.262-0.162-57.931,15.506c-9.048,9.049-14.713,26.328-18.258,43.98     c-32.766-0.557-60.883,25.99-60.883,60.015c0,33.084,26.916,60,60,60c34.043,0,60.573-28.129,60.015-60.883     c17.652-3.546,34.931-9.21,43.98-18.258c15.667-15.668,20.825-37.911,15.507-57.925l66.575-66.575     C491.494,176.237,504.679,261.736,476.214,337.999z"/><path d="M255.974,120.854c22.056,0,40-17.944,40-40s-17.944-40-40-40c-22.056,0-40,17.944-40,40S233.918,120.854,255.974,120.854     z"/><path d="M140.974,177.106c22.056,0,40-17.944,40-40s-17.944-40-40-40c-22.056,0-40,17.944-40,40S118.918,177.106,140.974,177.106     z"/><path d="M80.974,225.854c-22.056,0-40,17.944-40,40s17.944,40,40,40c22.056,0,40-17.944,40-40S103.03,225.854,80.974,225.854z"/><path d="M150.974,351.669c-22.056,0-40,17.944-40,40s17.944,40,40,40c22.056,0,40-17.944,40-40S173.03,351.669,150.974,351.669z"/><path d="M430.974,215.84c-22.056,0-40,17.944-40,40s17.944,40,40,40c22.056,0,40-17.944,40-40S453.03,215.84,430.974,215.84z"/></g></g></g><g id="Layer_1"/></svg>